  <svg
    preserveAspectRatio="xMidYMid meet"
    viewBox="0 0 585 320"
  >
    <defs>
      <path d="M0 0L585.47 0L585.47 102.77L0 102.77L0 0Z" id="c1YXM5v9YA" />
      <path
        d="M483.56 67.29L479.7 114.75L469.06 114.57L472.8 68.6L472.57 68.6L472.57 46.79L479.08 62.3L484 46.45L483.24 67.29L483.56 67.29Z"
        id="d2Eb4ybTD"
      />
      <path
        d="M535.88 29.81L585.47 29.81L585.47 206.59L535.88 206.59L535.88 29.81Z"
        id="aDQgH8JMQ"
      />
      <path
        d="M0 201.42L585.47 201.42L585.47 320L0 320L0 201.42Z"
        id="azobVKW9p"
      />
      <path
        d="M460.53 91.22L507.47 91.22L507.47 116.47L460.53 116.47L460.53 91.22Z"
        id="awsdpf1M"
      />
      <path
        d="M397.46 273.34C397.46 289.49 344.87 302.61 280.1 302.61C215.33 302.61 162.74 289.49 162.74 273.34C162.74 257.18 215.33 244.06 280.1 244.06C344.87 244.06 397.46 257.18 397.46 273.34Z"
        id="b1W4tOjueI"
      />
      <path
        d="M165.91 77.91L162.04 125.37L151.4 125.19L155.15 79.22L154.92 79.22L154.92 57.41L161.42 72.92L166.35 57.07L165.59 77.91L165.91 77.91Z"
        id="a43F2ICCAh"
      />
      <path
        d="M0 29.81L49.59 29.81L49.59 206.59L0 206.59L0 29.81Z"
        id="h88y62gyz"
      />
      <path
        d="M47.49 94.66L187 94.66L187 203.72L47.49 203.72L47.49 94.66Z"
        id="a3dcTdwQL"
      />
      <path
        d="M453.15 65.49L463.15 112.13L452.87 114.75L443.18 69.58L442.96 69.64L436.66 48.67L447.4 61.87L447.55 45.34L452.84 65.57L453.15 65.49Z"
        id="hyGZVAitV"
      />
      <path
        d="M340.06 53.54C354.14 53.54 365.56 64.96 365.56 79.04C365.56 91.39 365.56 102.94 365.56 115.28C365.56 129.37 354.14 140.78 340.06 140.78C316.03 140.78 269.44 140.78 245.42 140.78C231.33 140.78 219.91 129.37 219.91 115.28C219.91 102.94 219.91 91.39 219.91 79.04C219.91 64.96 231.33 53.54 245.42 53.54C269.44 53.54 316.03 53.54 340.06 53.54Z"
        id="ajnrMDKOZ"
      />
      <path
        d="M213.29 94.66L379.4 94.66L379.4 202.57L213.29 202.57L213.29 94.66Z"
        id="a2FamBnDew"
      />
      <path
        d="M398.54 94.66L536.97 94.66L536.97 203.72L398.54 203.72L398.54 94.66Z"
        id="i1xciJX3B"
      />
      <path
        d="M184.4 173.87L220.09 173.87L220.09 206.59L184.4 206.59L184.4 173.87Z"
        id="c1xhlBkvru"
      />
      <path
        d="M366.16 173.87L401.85 173.87L401.85 206.59L366.16 206.59L366.16 173.87Z"
        id="criu86Hsg"
      />
      <path
        d="M186.21 144.2L218.29 144.2L218.29 175.82L186.21 175.82L186.21 144.2Z"
        id="ci5ZG93BL"
      />
      <path
        d="M369.77 142.02L401.85 142.02L401.85 174.73L369.77 174.73L369.77 142.02Z"
        id="c34Ol5RB6d"
      />
      <path
        d="M175.25 97.9L221.51 48.91L246.15 70.07L199.9 119.06L175.25 97.9Z"
        id="eieRnOcJ0"
      />
      <path
        d="M184.4 116.47L221 116.47L221 147.9L184.4 147.9L184.4 116.47Z"
        id="bg0k2ZzWU"
      />
      <path
        d="M409.73 97.44L360.53 45.34L335.89 66.5L385.08 118.61L409.73 97.44Z"
        id="d1Li2nq0Nj"
      />
      <path
        d="M366.16 113.58L401.61 113.58L401.61 144.02L366.16 144.02L366.16 113.58Z"
        id="d1dU3bbw27"
      />
      <path
        d="M166.35 96.21L224.61 96.21L224.61 120.2L166.35 120.2L166.35 96.21Z"
        id="a39uUqpQ1k"
      />
      <path
        d="M362.55 94.66L420.81 94.66L420.81 116.47L362.55 116.47L362.55 94.66Z"
        id="btqEULZi6"
      />
      <path
        d="M134.65 58.72L144.66 105.36L134.38 107.98L124.69 62.81L124.47 62.87L118.16 41.9L128.9 55.1L129.06 38.57L134.34 58.8L134.65 58.72Z"
        id="bzUjmJvbg"
      />
      <path
        d="M107.28 92.94L107.37 92.11L102.9 92.94L98.54 71.53L108.03 85.57L109.69 69.11L113.49 92L107.28 92.94Z"
        id="b2CKZNd9gU"
      />
      <path
        d="M126.63 92.94L166.35 92.94L166.35 114.75L126.63 114.75L126.63 92.94Z"
        id="d3R9Nt8rsl"
      />
      <path
        d="M420.81 92.94L460.53 92.94L460.53 114.75L420.81 114.75L420.81 92.94Z"
        id="b2Ula8COcm"
      />
      <path
        d="M79.68 91.22L126.63 91.22L126.63 116.47L79.68 116.47L79.68 91.22Z"
        id="aP4ISN5qg"
      />
      <path
        d="M49.12 83.59L83.17 87.58L80.19 110.73L46.14 106.75L49.12 83.59Z"
        id="b27IG7SXQA"
      />
      <path
        d="M541.52 83.59L507.47 87.58L510.46 110.73L544.5 106.75L541.52 83.59Z"
        id="ddKh7fLVt"
      />
      <path
        d="M385.81 273.34C385.81 286.32 338.08 296.87 279.29 296.87C220.49 296.87 172.76 286.32 172.76 273.34C172.76 260.35 220.49 249.8 279.29 249.8C338.08 249.8 385.81 260.35 385.81 273.34Z"
        id="a1BORn8QOe"
      />
      <path
        d="M287.81 56.95L297.67 56.95L297.67 203.08L287.81 203.08L287.81 56.95Z"
        id="b41xwju2XX"
      />
      <path
        d="M277.81 147.61C277.81 150.67 274.99 153.15 271.52 153.15C268.05 153.15 265.23 150.67 265.23 147.61C265.23 144.55 268.05 142.07 271.52 142.07C274.99 142.07 277.81 144.55 277.81 147.61Z"
        id="c44yRKywb"
      />
      <path
        d="M318.98 148.07C318.98 151.38 316.16 154.07 312.69 154.07C309.22 154.07 306.4 151.38 306.4 148.07C306.4 144.76 309.22 142.07 312.69 142.07C316.16 142.07 318.98 144.76 318.98 148.07Z"
        id="a7cht5Ukwg"
      />
      <path
        d="M213.71 54.1L254.37 31.71L271.52 60.04L230.87 82.43L213.71 54.1Z"
        id="b2MxLNTlCw"
      />
      <path
        d="M280.35 25.87L244.82 38.21L255.53 66.25L291.06 53.92L280.35 25.87Z"
        id="eEAtrFX41"
      />
      <path
        d="M299.33 24.64L334.86 36.97L324.16 65.02L288.63 52.68L299.33 24.64Z"
        id="bbkg60jD9"
      />
      <path
        d="M370.5 54.1L329.84 31.71L312.69 60.04L353.34 82.43L370.5 54.1Z"
        id="c2n4J5y4cL"
      />
      <path
        d="M267.94 34.17L292.74 19.94L317.53 34.17L308.06 57.19L277.41 57.19L267.94 34.17Z"
        id="b1999uF0u0"
      />
      <path
        d="M171.79 270.07L385.81 270.07L385.81 273.34L171.79 273.34L171.79 270.07Z"
        id="c2GbVmM4ES"
      />
      <path
        d="M176.37 279.15L382.2 279.15L382.2 282.42L176.37 282.42L176.37 279.15Z"
        id="b2KUT7Kd9p"
      />
      <path
        d="M194.34 287.51L365.86 287.51L365.86 290.79L194.34 290.79L194.34 287.51Z"
        id="b5lLEXYSMG"
      />
      <path
        d="M175.89 262.43L381.72 262.43L381.72 265.7L175.89 265.7L175.89 262.43Z"
        id="bZpHmS2gn"
      />
      <path
        d="M281 248.08L277.57 248.08L277.57 302.61L281 302.61L281 248.08Z"
        id="csoNGBRph"
      />
      <path
        d="M364.56 257.62L193.04 257.62L193.04 254.34L364.56 254.34L364.56 257.62Z"
        id="e4I02Sv9i4"
      />
      <path
        d="M291.73 257.52L291.73 257.52L291.35 257.52L291.73 257.52Z"
        id="dHrHXyCrQ"
      />
      <path
        d="M294.45 246.99L291.02 246.99L291.02 301.52L294.45 301.52L294.45 246.99Z"
        id="g3ngbaYNH"
      />
      <path
        d="M308.11 249.72L304.68 249.72L304.68 300.97L308.11 300.97L308.11 249.72Z"
        id="aps2B5ooQ"
      />
      <path
        d="M320.69 248.89L317.26 248.89L317.26 296.87L320.69 296.87L320.69 248.89Z"
        id="cMBaWIEcn"
      />
      <path
        d="M334.8 248.89L331.37 248.89L331.37 296.87L334.8 296.87L334.8 248.89Z"
        id="a4fTPv9OY"
      />
      <path
        d="M349.28 251.53L345.85 251.53L345.85 291.88L349.28 291.88L349.28 251.53Z"
        id="c6a02AgHor"
      />
      <path
        d="M361.48 254.08L358.05 254.08L358.05 294.43L361.48 294.43L361.48 254.08Z"
        id="d67RCd9h1"
      />
      <path
        d="M374.06 258.61L370.63 258.61L370.63 288.06L374.06 288.06L374.06 258.61Z"
        id="fSvhMsySL"
      />
      <path
        d="M268.66 248.63L265.23 248.63L265.23 299.88L268.66 299.88L268.66 248.63Z"
        id="aEcSzXzPX"
      />
      <path
        d="M256.28 249.35L252.84 249.35L252.84 297.33L256.28 297.33L256.28 249.35Z"
        id="a3yrjKVkz"
      />
      <path
        d="M242.93 249.8L239.5 249.8L239.5 297.79L242.93 297.79L242.93 249.8Z"
        id="e291Eo65Cy"
      />
      <path
        d="M227.69 249.8L224.26 249.8L224.26 297.79L227.69 297.79L227.69 249.8Z"
        id="bpm50vHri"
      />
      <path
        d="M213.29 253.16L209.86 253.16L209.86 293.51L213.29 293.51L213.29 253.16Z"
        id="csc9tSXJe"
      />
      <path
        d="M202.25 253.16L198.82 253.16L198.82 293.51L202.25 293.51L202.25 253.16Z"
        id="b2coxUUdbr"
      />
      <path
        d="M188.71 258.07L185.28 258.07L185.28 287.51L188.71 287.51L188.71 258.07Z"
        id="fdCVGGV6S"
      />
    </defs>
    <g>
      <g>
        <g>
          <use
            xlinkHref="#c1YXM5v9YA"
            opacity="1"
            fill="#dbcbb2"
            fillOpacity="1"
          />
        </g>
        <g>
          <use
            xlinkHref="#d2Eb4ybTD"
            opacity="1"
            fill="#663d27"
            fillOpacity="1"
          />
        </g>
        <g>
          <use
            xlinkHref="#aDQgH8JMQ"
            opacity="1"
            fill="#656565"
            fillOpacity="1"
          />
        </g>
        <g>
          <use
            xlinkHref="#azobVKW9p"
            opacity="1"
            fill="#82705a"
            fillOpacity="1"
          />
        </g>
        <g>
          <use
            xlinkHref="#awsdpf1M"
            opacity="1"
            fill="#7b7b7b"
            fillOpacity="1"
          />
        </g>
        <g>
          <use
            xlinkHref="#b1W4tOjueI"
            opacity="1"
            fill="#5e5f61"
            fillOpacity="1"
          />
        </g>
        <g>
          <use
            xlinkHref="#a43F2ICCAh"
            opacity="1"
            fill="#663d27"
            fillOpacity="1"
          />
        </g>
        <g>
          <use
            xlinkHref="#h88y62gyz"
            opacity="1"
            fill="#656565"
            fillOpacity="1"
          />
        </g>
        <g>
          <use
            xlinkHref="#a3dcTdwQL"
            opacity="1"
            fill="#737373"
            fillOpacity="1"
          />
        </g>
        <g>
          <use
            xlinkHref="#hyGZVAitV"
            opacity="1"
            fill="#663d27"
            fillOpacity="1"
          />
        </g>
        <g>
          <use
            xlinkHref="#ajnrMDKOZ"
            opacity="1"
            fill="#633c29"
            fillOpacity="1"
          />
        </g>
        <g>
          <use
            xlinkHref="#a2FamBnDew"
            opacity="1"
            fill="#633d2a"
            fillOpacity="1"
          />
        </g>
        <g>
          <use
            xlinkHref="#i1xciJX3B"
            opacity="1"
            fill="#737373"
            fillOpacity="1"
          />
        </g>
        <g>
          <use
            xlinkHref="#c1xhlBkvru"
            opacity="1"
            fill="#646464"
            fillOpacity="1"
          />
        </g>
        <g>
          <use
            xlinkHref="#criu86Hsg"
            opacity="1"
            fill="#646464"
            fillOpacity="1"
          />
        </g>
        <g>
          <use
            xlinkHref="#ci5ZG93BL"
            opacity="1"
            fill="#6e6e6e"
            fillOpacity="1"
          />
        </g>
        <g>
          <use
            xlinkHref="#c34Ol5RB6d"
            opacity="1"
            fill="#6e6e6e"
            fillOpacity="1"
          />
        </g>
        <g>
          <use
            xlinkHref="#eieRnOcJ0"
            opacity="1"
            fill="#737271"
            fillOpacity="1"
          />
        </g>
        <g>
          <use
            xlinkHref="#bg0k2ZzWU"
            opacity="1"
            fill="#7e7e7e"
            fillOpacity="1"
          />
        </g>
        <g>
          <use
            xlinkHref="#d1Li2nq0Nj"
            opacity="1"
            fill="#737271"
            fillOpacity="1"
          />
        </g>
        <g>
          <use
            xlinkHref="#d1dU3bbw27"
            opacity="1"
            fill="#7e7e7e"
            fillOpacity="1"
          />
        </g>
        <g>
          <use
            xlinkHref="#a39uUqpQ1k"
            opacity="1"
            fill="#848484"
            fillOpacity="1"
          />
        </g>
        <g>
          <use
            xlinkHref="#btqEULZi6"
            opacity="1"
            fill="#848484"
            fillOpacity="1"
          />
        </g>
        <g>
          <use
            xlinkHref="#bzUjmJvbg"
            opacity="1"
            fill="#663d27"
            fillOpacity="1"
          />
        </g>
        <g>
          <use
            xlinkHref="#b2CKZNd9gU"
            opacity="1"
            fill="#704327"
            fillOpacity="1"
          />
        </g>
        <g>
          <use
            xlinkHref="#d3R9Nt8rsl"
            opacity="1"
            fill="#6e6e6e"
            fillOpacity="1"
          />
        </g>
        <g>
          <use
            xlinkHref="#b2Ula8COcm"
            opacity="1"
            fill="#6e6e6e"
            fillOpacity="1"
          />
        </g>
        <g>
          <use
            xlinkHref="#aP4ISN5qg"
            opacity="1"
            fill="#7b7b7b"
            fillOpacity="1"
          />
        </g>
        <g>
          <use
            xlinkHref="#b27IG7SXQA"
            opacity="1"
            fill="#6e6e6e"
            fillOpacity="1"
          />
        </g>
        <g>
          <use
            xlinkHref="#ddKh7fLVt"
            opacity="1"
            fill="#6e6e6e"
            fillOpacity="1"
          />
        </g>
        <g>
          <use
            xlinkHref="#a1BORn8QOe"
            opacity="1"
            fill="#2d2d2d"
            fillOpacity="1"
          />
        </g>
        <g>
          <use
            xlinkHref="#b41xwju2XX"
            opacity="1"
            fill="#ab7c3b"
            fillOpacity="1"
          />
        </g>
        <g>
          <use
            xlinkHref="#c44yRKywb"
            opacity="1"
            fill="#ab7c3b"
            fillOpacity="1"
          />
        </g>
        <g>
          <use
            xlinkHref="#a7cht5Ukwg"
            opacity="1"
            fill="#ab7c3b"
            fillOpacity="1"
          />
        </g>
        <g>
          <use
            xlinkHref="#b2MxLNTlCw"
            opacity="1"
            fill="#666666"
            fillOpacity="1"
          />
        </g>
        <g>
          <use
            xlinkHref="#eEAtrFX41"
            opacity="1"
            fill="#5c5d5f"
            fillOpacity="1"
          />
        </g>
        <g>
          <use
            xlinkHref="#bbkg60jD9"
            opacity="1"
            fill="#5c5d5f"
            fillOpacity="1"
          />
        </g>
        <g>
          <use
            xlinkHref="#c2n4J5y4cL"
            opacity="1"
            fill="#666666"
            fillOpacity="1"
          />
        </g>
        <g>
          <use
            xlinkHref="#b1999uF0u0"
            opacity="1"
            fill="#636363"
            fillOpacity="1"
          />
        </g>
        <g>
          <use
            xlinkHref="#c2GbVmM4ES"
            opacity="1"
            fill="#5b5c5e"
            fillOpacity="1"
          />
        </g>
        <g>
          <use
            xlinkHref="#b2KUT7Kd9p"
            opacity="1"
            fill="#5b5c5e"
            fillOpacity="1"
          />
        </g>
        <g>
          <use
            xlinkHref="#b5lLEXYSMG"
            opacity="1"
            fill="#5b5c5e"
            fillOpacity="1"
          />
        </g>
        <g>
          <use
            xlinkHref="#bZpHmS2gn"
            opacity="1"
            fill="#5b5c5e"
            fillOpacity="1"
          />
        </g>
        <g>
          <use
            xlinkHref="#csoNGBRph"
            opacity="1"
            fill="#5b5c5e"
            fillOpacity="1"
          />
        </g>
        <g>
          <use
            xlinkHref="#e4I02Sv9i4"
            opacity="1"
            fill="#5b5c5e"
            fillOpacity="1"
          />
        </g>
        <g>
          <use
            xlinkHref="#dHrHXyCrQ"
            opacity="1"
            fill="#5b5c5e"
            fillOpacity="1"
          />
        </g>
        <g>
          <use
            xlinkHref="#g3ngbaYNH"
            opacity="1"
            fill="#5b5c5e"
            fillOpacity="1"
          />
        </g>
        <g>
          <use
            xlinkHref="#aps2B5ooQ"
            opacity="1"
            fill="#5b5c5e"
            fillOpacity="1"
          />
        </g>
        <g>
          <use
            xlinkHref="#cMBaWIEcn"
            opacity="1"
            fill="#5b5c5e"
            fillOpacity="1"
          />
        </g>
        <g>
          <use
            xlinkHref="#a4fTPv9OY"
            opacity="1"
            fill="#5b5c5e"
            fillOpacity="1"
          />
        </g>
        <g>
          <use
            xlinkHref="#c6a02AgHor"
            opacity="1"
            fill="#5b5c5e"
            fillOpacity="1"
          />
        </g>
        <g>
          <use
            xlinkHref="#d67RCd9h1"
            opacity="1"
            fill="#5b5c5e"
            fillOpacity="1"
          />
        </g>
        <g>
          <use
            xlinkHref="#fSvhMsySL"
            opacity="1"
            fill="#5b5c5e"
            fillOpacity="1"
          />
        </g>
        <g>
          <use
            xlinkHref="#aEcSzXzPX"
            opacity="1"
            fill="#5b5c5e"
            fillOpacity="1"
          />
        </g>
        <g>
          <use
            xlinkHref="#a3yrjKVkz"
            opacity="1"
            fill="#5b5c5e"
            fillOpacity="1"
          />
        </g>
        <g>
          <use
            xlinkHref="#e291Eo65Cy"
            opacity="1"
            fill="#5b5c5e"
            fillOpacity="1"
          />
        </g>
        <g>
          <use
            xlinkHref="#bpm50vHri"
            opacity="1"
            fill="#5b5c5e"
            fillOpacity="1"
          />
        </g>
        <g>
          <use
            xlinkHref="#csc9tSXJe"
            opacity="1"
            fill="#5b5c5e"
            fillOpacity="1"
          />
        </g>
        <g>
          <use
            xlinkHref="#b2coxUUdbr"
            opacity="1"
            fill="#5b5c5e"
            fillOpacity="1"
          />
        </g>
        <g>
          <use
            xlinkHref="#fdCVGGV6S"
            opacity="1"
            fill="#5b5c5e"
            fillOpacity="1"
          />
        </g>
      </g>
    </g>
  </svg>

